<?xml version="1.0" encoding="UTF-8"?><svg id="_레이어_1" xmlns="http://www.w3.org/2000/svg" viewBox="0 0 498.84 457.15"><defs><style>.cls-1{fill:#60a90f;fill-rule:evenodd;}</style></defs><path class="cls-1" d="M418.76,270.98l1.01,1.01,1.01,1.13.9,1.24,2.13.11,2.36.22.9,2.03.11,2.14-.11,2.59-.56,2.48-.79,2.36-.79,2.14-.45,1.13-.67,1.24-.34,1.01-.22,1.13.45,1.01,1.01.9,1.35.79,1.35.9,1.01.9.67.9,1.24,2.36,1.01,2.48,1.01,2.36,1.24,2.25,2.47.34,2.81.34,2.58.11,1.35,1.35,1.46,1.01,1.8,1.01,1.91.68,2.13.22-1.12,2.25-1.35,2.03-1.35,2.25-.56.9-.79,1.13-.79,1.24-.79,1.46-.45,1.13-.11,1.13.22.79.79.56.9.79.67.56.45,1.01.22,1.35v1.35l-.22,1.24v1.69l1.69,1.91,2.02,1.35,2.36,1.13,2.47.9,2.7.68,2.58.79,2.7.68,2.47.9,1.01.23h2.47l.34,1.46-.22,1.69v1.8l-2.36.9-1.8,1.01-1.57,1.46-1.12,1.8-.79,2.36-.34,2.48-.34,2.59-.11,2.7-.67,2.36-.79,1.58-.9,1.35-1.01,1.13-.9,1.24-1.8.56-1.57.34-1.46.23-1.35.79-.45.68-.56,1.35-.56,1.46-.45,1.69-.45,1.24-.22,1.01.22,1.35.11,1.01v1.13l-.45.79-.67.79-.79.68-.67.68h-2.13l-.9.11-1.91.11-1.69-.11h-1.46l-1.46.45-.9.9-.79,1.24-.56,1.58-.45,1.46-1.46,2.93-1.12,2.36-2.36-5.29-2.81-4.95-2.92-4.61-1.24-1.69-1.12-1.46-.79-1.58-.67-3.15-.45-3.38-.45-3.49-.9-3.38-3.48-2.48-3.82-2.36-3.71-2.48-.67-2.59-.79-2.48-3.15-3.38-3.15-.56-3.03-.56-3.26-.34-3.03-.45-2.81-.68-1.69-.79-1.57-1.01-1.57-.9-2.58-1.35-2.13-1.13-2.02-1.35-2.13-1.46-1.24-1.01-1.35-1.24-1.01-1.01-1.35-2.14-1.01-2.36-1.24-2.48v-1.91l-.11-.79v-8.78l-.11-.23v-6.98l-.22-.34.22-.45v-.9l-.22-.22-.11-.34v-.9l1.46.34,1.35.11,1.57.11h6.29l.34-.11.45.11h.56l.34-.11.11-.11h6.85l.22-.11,3.15-.68,3.37-.56,3.48-1.01,1.69-1.01,1.46-1.35,1.35-1.46,1.35-1.8,4.49-5.74,4.38-5.74,2.25-2.59,2.02-2.48,1.69-2.7,1.69-3.38,1.46-3.38,1.69-2.93ZM401.76,326.82h-.68v1.15h-3.2v.58h7.11v-.58h-3.22v-1.15ZM398.29,326.68l.27.56c1.2-.21,2.38-.83,2.87-1.72.49.89,1.67,1.51,2.85,1.72l.27-.56c-1.38-.18-2.78-1.05-2.79-2.09v-.38h-.68v.38c0,1.04-1.4,1.91-2.79,2.09ZM398.72,330.55c0,.86,1.01,1.34,2.7,1.35,1.68,0,2.69-.49,2.7-1.35,0-.87-1.02-1.35-2.7-1.35s-2.69.48-2.7,1.35ZM399.42,330.55c0-.52.74-.81,2-.81s2,.29,2,.81-.74.81-2,.81-2-.3-2-.81ZM410.13,324.95h-4.39v.56h.86v3.86h-1.06s.09.6.09.6c1.39,0,3.26-.04,4.92-.31l-.04-.5c-.4.04-.82.09-1.24.12v-3.77h.86v-.56ZM407.27,329.36v-3.85h1.33v3.81c-.45.03-.9.04-1.33.04ZM411,331.92h.7v-4.1h1.3v-.58h-1.3v-3.13h-.7v7.81ZM419.6,324.61h-5.29v.58h4.61v.11c0,.73,0,1.55-.24,2.66h-5.25v.58h3.19v3.39h.7v-3.39h3.22v-.58h-1.16c.23-1.12.23-1.94.23-2.66v-.68Z"/><path class="cls-1" d="M487.2,218.51v3.96l.11.91.34,1.47.57,1.25.9.68,1.13.57,1.24.68,1.13.45,1.02.68.79.11h2.03l.34,1.93.23,2.15.34,1.7.79,1.7-.68,1.93-.68,1.93-.9,1.7-.79,2.15-.56,1.93v2.15l.45,1.25.56,1.13.79,1.36.45,1.36.11,1.7v1.93l-.11,1.93.11,1.7.56,1.13.9,1.25.45,1.13-1.47,2.72-1.47,2.6-5.2,1.47-5.08,1.81-5.76,1.93-3.84,1.36-4.18,1.25-1.58.45-1.92.45-1.81.57-1.58.68-1.02.57-.45,1.02-.23,1.47v1.81l-.11,1.7v4.19l-.11,1.81-.56,1.93-.9,1.7-1.24,1.7-2.49,4.08-2.37,4.08-2.6,4.08-1.81-.45-1.58-.11-1.7-.45-1.02-.79-1.02-.79-.9-1.13-1.02-.57-2.37-.45h-2.6l-2.82-.23-1.02-2.38-.9-2.38-.79-2.38-1.13-2.27-1.36-1.25-1.58-1.25-1.7-1.13-1.13-1.47.9-2.38,1.02-2.72,1.02-2.83.79-2.72.23-2.83-.23-2.83-1.24-2.72-2.03-.23h-2.49l-1.02-1.25-1.13-1.25-1.02-1.25.45-2.94.45-3.06.56-3.06.68-2.94.68-2.6,1.02-2.49,1.36-2.27,1.58-1.81,2.6-2.38,1.58-1.7,1.92-1.36,2.15-1.36,2.37-1.36,1.47-1.02,1.47-1.13,1.58-1.02,1.47-.79,1.7-.57,2.15-.34h8.02l3.84-.11,3.28-1.02,2.94-1.36,2.49-1.59,2.6-1.81,2.49-1.81,2.6-1.7,3.39-1.81,3.73-1.59,3.39-1.81ZM447.87,259.25l.29.56c2.28-.68,3.68-2.13,3.69-4.12h-3.64v.58h2.88c-.13,1.35-1.34,2.43-3.22,2.99ZM448.95,261.39c0,.95,1,1.5,2.56,1.51,1.57,0,2.56-.57,2.56-1.51s-.99-1.51-2.56-1.51-2.57.57-2.56,1.51ZM449.64,261.39c0-.59.72-.96,1.87-.95,1.14,0,1.88.36,1.89.95,0,.58-.75.95-1.89.95s-1.88-.38-1.87-.95ZM453.98,255.1h-.68v4.68h.68v-2.09h1.17v-.56h-1.17v-2.03ZM462.78,258.96h-3.24v-.92h2.39v-.56h-4.7v-1.46h4.65v-.56h-5.33v2.57h2.32v.92h-3.22v.56h7.13v-.56ZM456.5,261.5c0,.9,1.02,1.4,2.7,1.4s2.69-.5,2.7-1.4c0-.89-1.02-1.4-2.7-1.4s-2.69.51-2.7,1.4ZM457.2,261.5c0-.54.75-.86,2-.86s2,.32,2,.86-.76.86-2,.86-2-.31-2-.86ZM469.6,255.61h-5.29v.58h4.61v.11c0,.73,0,1.55-.24,2.66h-5.25v.58h3.19v3.39h.7v-3.39h3.22v-.58h-1.16c.23-1.12.23-1.94.23-2.66v-.68Z"/><path class="cls-1" d="M403.21,217.07l2.25.23h.56l.34.45v.68l-.11.68v.57l-.79,1.93-1.13,1.7-1.24,1.7-1.01,1.82-.56,1.82.11,1.59.56,1.7.79,1.59.56,1.59.34,1.93.11,2.16.11,1.7.45,1.82.9,1.36h2.48l.79.23,1.13-.11h4.17l-1.24,3.75-.79,3.86-.34,2.61-.34,2.84-.68,2.84-.79,1.93-1.01,2.16-1.13,2.27-1.24,2.27-1.69,2.61-1.8,2.39-1.91,2.39-2.7,3.41-2.93,3.52-1.13,1.48-1.01,1.82-1.24,1.59-1.13,1.36-1.24.91-2.03.8-2.36.34-2.36.23-2.48.11h-7.88l-.23.11-4.84-.11-4.39-.57-3.83-1.25-3.49-1.59.56-3.07.68-3.07.79-3.07.45-3.29.34-3.41,1.91-2.61,2.03-2.61,1.69-2.61,1.69-2.84,1.46-3.07,1.35-4.43.79-4.77.79-4.89,1.13-5,1.13-2.95,1.24-2.73,1.35-3.07,1.24-2.95,1.01-2.95,1.46-2.84,3.49-.23h7.21l3.27-.68,1.58-.57,1.58-.91,1.69-.8,1.8-.8,1.69-.8,2.03-.23ZM371.82,265.85l.07.59c1.41,0,3.28-.04,4.92-.32l-.05-.5c-.81.11-1.7.17-2.57.2v-1.53h-.68v1.55c-.59.02-1.16.02-1.67.02ZM376.19,262.59h-3.89v.58h3.21c0,.48-.02,1.08-.2,1.89l.68.07c.2-.93.2-1.63.2-2.12v-.41ZM372.85,268.48c0,.89.99,1.41,2.61,1.4,1.61,0,2.6-.51,2.61-1.4,0-.88-1-1.4-2.61-1.4-1.62,0-2.61.52-2.61,1.4ZM373.55,268.48c0-.54.72-.86,1.91-.86,1.17,0,1.9.32,1.91.86,0,.55-.74.86-1.91.86-1.19,0-1.92-.31-1.91-.86ZM377.29,266.98h.7v-2.16h1.13v-.59h-1.13v-2.12h-.7v4.88ZM382.46,263.78v-.47h1.8v-.56h-4.32v.56h1.82v.47c0,1.11-.83,2.12-2,2.52l.36.56c.94-.34,1.67-1.04,2.01-1.94.35.82,1.08,1.47,1.99,1.77l.34-.54c-1.16-.38-2-1.32-2-2.38ZM381.05,269.74h5.29v-.58h-4.61v-1.87h-.68v2.45ZM385.41,267.83h.68v-5.73h-.68v5.73ZM393.6,262.61h-5.29v.58h4.61v.11c0,.73,0,1.55-.24,2.66h-5.25v.58h3.19v3.39h.7v-3.39h3.22v-.58h-1.16c.23-1.12.23-1.94.23-2.66v-.68Z"/><path class="cls-1" d="M321.81,0l1.25.11,1.02.57.68,1.02.34,1.36.11,1.47.11,1.47.34,1.36.45,1.13.57.91,1.25.45,1.48.11h1.7l1.7-.11h1.59l3.97.34,3.75.11,1.36.79,1.36.79,1.14.91,1.36.79,1.59.57,1.82.34,2.16-.23-.23,3.39-.23,3.39-.23,3.51-.91,3.05-1.14,3.05-1.36,3.17-.91,3.05-.34,2.49-.23,2.72-.23,1.81-.23,1.92v1.47l.45,1.92.68,1.92,1.02,2.04.91,1.92.57,1.47.79,1.58.79,1.81.57,1.58.23,1.58v1.92l-.23,2.15-.34,2.38-.23,3.28-.45,3.05-.23,3.62-.23,3.39-.23,3.39-.45,3.05-.79,2.72-1.14,2.6-.68,2.72-.45,3.17-.34,3.39-.23,3.51-3.86.11-3.41.23-5.79-7.24-6.13-7.24-6.13-6.9-1.59-1.81-1.48-2.04-1.7-1.92-1.82-1.13-1.36-.34-1.48-.11-1.59-.23-1.36-.23-1.36-.68-1.02-1.02-5.11-5.09-.23-.34-.11-.11-.11-.23-.23-.11-4.54-4.75-.34-1.92.34-1.92.45-1.58.45-1.58.45-1.81.11-.79v-6.79l-.11-3.62.45-3.39.34-3.51.23-3.17-.34-3.39-.68-3.28-.79-3.39-.45-3.39,1.36-.45.91-.91.45-1.13.45-1.47.11-1.7v-5.77l.11-1.7.45-2.26.79-1.81.68-1.58.45-1.58,2.95-1.13,3.41-.68,3.75-.34h5.91l.79-.11h1.25l1.36-.11ZM319.18,54.76h-4.7v-2.47h4.63v-.56h-5.33v3.58h2.3v2.03h-3.2v.58h7.15v-.58h-3.26v-2.03h2.41v-.56ZM327.76,55.01h-3.22v-.83h2.3v-2.88h-.7v.88h-3.87v-.88h-.68v2.88h2.27v.83h-3.21v.58h7.11v-.58ZM321.51,57.53c0,.87.99,1.36,2.68,1.37,1.68,0,2.69-.5,2.7-1.37,0-.87-1.02-1.37-2.7-1.37s-2.69.5-2.68,1.37ZM322.2,57.53c0-.53.75-.83,2-.83s1.99.3,2,.83c0,.52-.76.83-2,.83s-1.99-.31-2-.83ZM322.27,53.63v-.9h3.87v.9h-3.87ZM334.6,51.61h-5.29v.58h4.61v.11c0,.73,0,1.55-.24,2.66h-5.25v.58h3.19v3.39h.7v-3.39h3.22v-.58h-1.16c.23-1.12.23-1.94.23-2.66v-.68Z"/><path class="cls-1" d="M378.24,5.03l1.68.23,1.23.57,1.12,1.02,1.35,1.02,2.02,1.7,1.79,1.24,1.68,1.36,1.91,1.47,1.35,1.24,1.23,1.02,1.12.68,1.91.68,1.79.23,1.68.34,1.91.23,2.13.68.45,2.15v1.81l-.34,1.47-.45,1.36-.9,1.13-.9,1.36-.79,1.36-1.12,1.24-1.01,1.47-.67,1.58-.34,1.24.11,1.24.67,1.36.67,1.47.79,1.24.56.9,1.12,1.36,1.68,1.58,1.46,1.7.9,1.58.22,2.26v4.52l.22,2.83-1.12,1.02-1.46.79-1.68.9-1.46.68-.9,1.02-.34,1.36.11,1.36v5.43l.22.9-.34,1.02-.45.79-.56.79-.34,1.13-.11,1.13.11,1.92.22,2.04.11,1.92.34,1.36.22.9.45,1.02.79,1.36.67,1.13.56,1.02.45.45,1.46.68,1.79.23h3.7l1.68.34,3.03.9,2.58,1.02,2.47.9.45,2.94.11,2.83.22,2.71.45,2.71.45,1.36.67,1.24.79,1.36.56,1.36.22,1.58-.22,1.92-1.01,1.81-1.01,1.81-1.23,1.58-1.57.45-1.68.11-1.23.45-1.01.79-1.12,1.24-.67,1.7-.45,1.47.11,2.37.9,2.04,1.23,1.58-.22.34-.11.45-.11.45-.22.45-1.46.45-1.46.57-1.68.34h-3.81l-.34.11h-4.71l-.11.34h-3.7l-.45-.23h-.45l-.22.23-.22.11-2.58.23-2.36.79-2.24,1.02-2.13,1.24-2.02,1.13-4.6,2.26-4.26,2.15-6.39-1.58-6.5-1.47-6.28-8.59-5.94-9.05-5.5-8.93h2.58l2.47-.23,2.36-.23.56-2.83.11-2.83.11-2.71.45-2.6.79-2.71,1.12-2.49.79-2.83.56-3.17.11-3.39.22-3.62.22-3.51.34-3.28.45-3.39.22-2.15.22-2.26-.22-2.04-.56-2.6-1.12-2.6-1.23-2.49-.67-1.92-.9-2.15-.9-1.92-.45-1.92.22-1.47.11-1.58.22-1.58.22-2.6.22-2.37.79-2.94,1.35-2.94,1.12-3.05.9-3.28.45-2.83.11-2.94.11-2.83.45-2.6,1.23-1.47,1.46-.9,1.46-.79,1.79-.68,1.91-.57,1.91-.9,1.46-1.02,1.57-1.24,1.35-1.13,1.12-1.36,1.01-1.36,1.01-.9,1.57-.23,1.91-.23ZM377.19,108.65h-4.75v-2.88h-.7v3.46h2.34v2.09h-3.2v.58h7.15v-.58h-3.26v-2.09h2.43v-.58ZM378.6,108.72l.09.56c.66,0,1.42,0,2.21-.03v1.52h.68v-1.56c.72-.04,1.45-.11,2.14-.23l-.04-.5c-1.67.22-3.64.23-5.1.23ZM379.23,106.78c0,.84.78,1.36,1.94,1.37,1.14,0,1.93-.53,1.93-1.37s-.78-1.36-1.93-1.35c-1.16,0-1.94.53-1.94,1.35ZM379.73,112.74h5.55v-.58h-4.86v-1.71h-.68v2.29ZM379.89,106.78c0-.5.51-.84,1.28-.83.74,0,1.26.33,1.28.83-.02.51-.54.85-1.28.85s-1.29-.33-1.28-.85ZM385.08,105.1h-.68v4.63h-1.62v.5h1.62v.81h.68v-5.94ZM392.6,105.61h-5.29v.58h4.61v.11c0,.73,0,1.55-.24,2.66h-5.25v.58h3.19v3.39h.7v-3.39h3.22v-.58h-1.16c.23-1.12.23-1.94.23-2.66v-.68Z"/><path class="cls-1" d="M291.95,23.72l.45,3.39.68,3.5.91,3.39.34,3.39-.34,2.37-.45,2.49-.34,2.49-.11,2.49-.11.9v6.78l.11,2.37-.45,2.03-.45,1.92-.57,1.81-.11,2.03.11,2.37.57.57.45.68.45.57,4.87,4.86,5.21,5.2,1.13.9,1.7.34,1.7.23,1.81.23,1.81.34,6.45,7.23,6.57,7.35,6,7.57,5.77,8.02,5.32,8.48-4.87,8.93-4.87,9.15-2.72,1.58-2.49,1.58h-1.13l-1.36-.11-1.02.34h-9.17l-.57.11h-10.08l-1.13-.57-1.36-.79-1.02-.79-1.47-5.76-1.47-6.1-1.59-5.76-7.25-5.76-7.36-5.42-1.59-1.36-1.47-1.47-1.7-1.24-2.72-1.02-2.83-.68-2.83-1.24-2.04-2.6-2.26-2.83.57-1.02.79-.9.45-1.02.11-1.02v-4.52l-.11-.79v-13.34l-.34-.68v-13.9l3.85-6.33,3.96-6.44.91-1.47,1.02-1.58.79-1.36.91-3.73.57-3.62.57-3.84,1.02-3.84,13.81-5.09ZM293.87,105.25l.29.56c2.28-.68,3.68-2.13,3.69-4.12h-3.64v.58h2.88c-.13,1.35-1.34,2.43-3.22,2.99ZM294.95,107.39c0,.95,1,1.5,2.56,1.51,1.57,0,2.56-.57,2.56-1.51s-.99-1.51-2.56-1.51-2.57.57-2.56,1.51ZM295.64,107.39c0-.59.72-.96,1.87-.95,1.14,0,1.88.36,1.89.95,0,.58-.75.95-1.89.95s-1.88-.38-1.87-.95ZM299.98,101.1h-.68v4.68h.68v-2.09h1.17v-.56h-1.17v-2.03ZM308.76,104.92h-7.11v.56h3.21v.94h-2.43v.56h4.77v1.94h.68v-2.5h-2.34v-.94h3.22v-.56ZM302.59,104.2h5.26v-2.92h-.7v.9h-3.87v-.9h-.68v2.92ZM303.27,103.64v-.94h3.87v.94h-3.87ZM315.6,101.61h-5.29v.58h4.61v.11c0,.73,0,1.55-.24,2.66h-5.25v.58h3.19v3.39h.7v-3.39h3.22v-.58h-1.16c.23-1.12.23-1.94.23-2.66v-.68Z"/><path class="cls-1" d="M262.41,103.51l1.13,1.36,1.02,1.47.9,1.58,1.13,1.25,1.92.91,2.26.68,2.26.45,2.14.91,2.37,1.81,2.37,1.92,7.34,5.55,7,5.66,2.03,8.83,2.14,8.72,1.13.79,1.02.68,1.13.68,1.24.57,1.47.11h7.34l.79-.11h9.03l.68-.11h2.03l1.81-.23,1.47-.57,1.13-.79,1.24-.68,1.13-.91,1.35-.57,4.74-9.17,4.85-8.94,2.71,3.85,3.05,4.3,1.02,1.47,1.13,1.92,1.35,1.92,1.35,1.7,1.13,1.02,2.37.91,2.48.57,2.71.34,2.82.57,2.48,1.02v2.49l-.34,3.17.11,3.4v3.4l-3.5.91-3.5.79-3.72.91-3.5.79-3.61,1.02-3.16,1.02-2.93,1.47-2.71,1.92-3.95,3.96-2.03,3.4-1.81,3.4-1.92,3.51-3.72,1.47-2.93,1.58-2.93,1.81-2.82,2.15-1.35.91-1.24.91-1.02,1.02-.68,1.58-.45,1.92-.34,1.92-.68,1.92-.45.79-.68,1.02-1.02,1.02-.9,1.02-.56.34-1.47.11-1.81-.11-1.81-.34-1.69-.11-3.61-.34-3.5-.11-2.71-3.4-2.26-3.96-2.14-4.19-1.92-4.3-1.92-4.07-2.14-4.19-1.92-.57-1.81-.91-1.92-.91-2.03-.68-2.82-.45-2.71-.45-2.71-.34-2.6-.45-2.14-.68-1.92-1.25.34-3.17.34-3.28,2.82-.91,2.82-1.02.79-2.04,1.02-1.81.9-1.81.34-2.04v-3.06l-.34-2.83-.9-2.72-1.02-2.49-.9-2.38-1.47-3.51-1.35-3.74-1.35-5.21-1.13-5.09-1.24-4.98-1.47-4.53-1.92-1.13-1.92-1.25-1.47-1.47,1.81-.34,1.81.23h1.58l1.47-.34,1.02-.68.9-1.36.56-1.36.79-1.36.9-1.02ZM293.56,165.33v-.77h-.68v.79c0,1.22-.81,2.26-2.02,2.68l.38.56c.95-.35,1.66-1.08,1.99-2.02.34.82,1.02,1.46,1.88,1.78l.4-.54c-1.16-.39-1.95-1.37-1.94-2.48ZM292.13,170.44c0,.93.99,1.45,2.61,1.46,1.63,0,2.63-.53,2.63-1.46s-1-1.49-2.63-1.49c-1.62,0-2.62.55-2.61,1.49ZM292.82,170.44c0-.59.74-.95,1.93-.94,1.2,0,1.94.34,1.94.94,0,.56-.75.9-1.94.9s-1.94-.34-1.93-.9ZM294.91,166.34h1.75v2.39h.68v-4.63h-.68v1.67h-1.75v.56ZM305.76,167.92h-7.11v.56h3.21v.94h-2.43v.56h4.77v1.94h.68v-2.5h-2.34v-.94h3.22v-.56ZM299.59,167.2h5.26v-2.92h-.7v.9h-3.87v-.9h-.68v2.92ZM300.27,166.64v-.94h3.87v.94h-3.87ZM312.6,164.61h-5.29v.58h4.61v.11c0,.73,0,1.55-.24,2.66h-5.25v.58h3.19v3.39h.7v-3.39h3.22v-.58h-1.16c.23-1.12.23-1.94.23-2.66v-.68Z"/><path class="cls-1" d="M410.22,137.29l1.01,1.24,1.57.68,1.8.56,1.91.34,1.91.45,1.57.56v1.81l.67,1.47.67,1.13,1.23,1.24,1.01,1.02.9,1.13.34,1.24v1.92l-.22,1.81-.79,1.58-.56,1.81-.45,1.92-1.57,1.47-1.68,1.24-1.46,1.81v.34l-.22,1.69v2.14l.22,1.69.45,1.35.67,1.02.56,1.24v3.61l-1.35,1.35-.56,1.47-.34,1.69v1.69l.22,1.92v1.92l-.34,1.92-.79,1.35-1.12,1.13-1.46,1.35-1.46,1.35-1.35,1.35-.9,1.13-.45,1.02-.11,1.24-.34.9-.79,1.13-1.23,1.02-1.35.9-1.23,1.02-.9,1.02-.56,1.35.22,1.24.56,1.02.67,1.02v2.6h-.9v.23l-2.36-.23-2.02.34-1.91.79-1.8.79-1.57.9-1.8.9-1.8.56-2.58.34-2.47.11h-5.27l-3.03.45-.79-9.82-1.23-9.59-1.01-9.59-1.01-9.71-.9-9.82-.56-10.16-.22-10.61,6.4-3.05,6.4-3.39,1.57-.79,1.68-.79,1.68-.34h2.24l.45-.23h.34l.45.23h.22l.45-.23.11-.11h4.71l.34-.11h4.71l.22-.23h1.91l1.8-.45,1.46-.34,1.46-.68ZM389.99,177.76h-7.11v.56h3.2v.84c-1.49.07-2.35.55-2.36,1.38,0,.87,1.01,1.36,2.7,1.37,1.68,0,2.69-.5,2.7-1.37,0-.83-.88-1.31-2.36-1.38v-.84h3.22v-.56ZM383.27,176.73l.25.54c1.28-.15,2.48-.72,2.91-1.59.43.87,1.63,1.44,2.91,1.59l.25-.54c-1.38-.14-2.66-.83-2.72-1.71h2.48v-.56h-5.83v.56h2.47c-.06.88-1.37,1.57-2.72,1.71ZM384.42,180.53c0-.53.75-.84,2-.85,1.24,0,2,.32,2,.85s-.76.83-2,.83-2-.31-2-.83ZM390.97,175.15h2.86v1.01h-2.85v2.21h.61c1.45,0,2.49-.05,3.75-.27l-.05-.56c-1.23.2-2.23.25-3.62.23v-1.08h2.84v-2.11h-3.55v.56ZM391.66,180.48c0,.9.97,1.41,2.59,1.42,1.59,0,2.57-.52,2.57-1.42s-.98-1.42-2.57-1.42-2.6.53-2.59,1.42ZM392.32,180.48c0-.54.72-.87,1.93-.86,1.18,0,1.9.32,1.91.86,0,.55-.73.88-1.91.88s-1.93-.33-1.93-.88ZM396.75,174.1h-.68v4.72h.68v-2.18h1.19v-.58h-1.19v-1.96ZM404.6,174.61h-5.29v.58h4.61v.11c0,.73,0,1.55-.24,2.66h-5.25v.58h3.19v3.39h.7v-3.39h3.22v-.58h-1.16c.23-1.12.23-1.94.23-2.66v-.68Z"/><path class="cls-1" d="M366.63,163.17l2.8,27.96,2.91,27.84-3.47,8.34-3.58,8.45-8.39-3.38-8.84-3.04-8.84-2.93-1.23-4.28-1.34-4.17-.56-.23h-1.9l-.11-.23-.34-.11h-.22l-.45.11h-.56l-2.8-.11-2.8-.11h-1.45l-1.45-.34h-1.34l-1.12.11-.89.68-.56.79-.67.9-.45,1.01-.78.79h-1.68l-.11-.11-.34-.23h-.67l-.34.23-.45-.23-1.34-.23-1.01-.56-.9-.79-.67-.9-.89-.68v-2.25l.11-.79v-6.76l.34-1.24.78-1.13.78-.79.9-1.13.78-1.01.67-2.37.45-2.25.78-2.71,2.91-2.03,2.91-2.25,3.02-1.92,3.36-1.8,3.58-1.47,1.57-2.59,1.34-2.82,1.57-2.82,1.79-2.37,3.92-4.06,2.91-1.8,3.36-1.35,3.69-1.13,3.8-.9,3.92-.9,3.92-.9,3.69-1.01ZM336,202.96h-3.24v-.92h2.39v-.56h-4.7v-1.46h4.65v-.56h-5.33v2.57h2.32v.92h-3.22v.56h7.13v-.56ZM329.72,205.5c0,.9,1.02,1.4,2.7,1.4s2.69-.5,2.7-1.4c0-.89-1.02-1.4-2.7-1.4s-2.69.51-2.7,1.4ZM330.42,205.5c0-.54.75-.86,2-.86s2,.32,2,.86-.76.86-2,.86-2-.31-2-.86ZM336.92,204.97h.5c1.21,0,2.01-.04,2.94-.23l-.05-.58c-.86.18-1.6.22-2.68.23v-3.78h2.23v-.56h-2.94v4.92ZM343.31,199.1h-.65v3.13h-1.15v-2.97h-.63v7.24h.63v-3.69h1.15v4.1h.65v-7.81ZM351.56,203.1h-7.15v.56h3.29v1.6h.68v-1.6h3.17v-.56ZM345.33,206.74h5.44v-.58h-4.75v-1.67h-.68v2.25ZM345.34,202.2h5.29v-2.72h-5.29v2.72ZM346.01,201.64v-1.62h3.94v1.62h-3.94ZM358.38,199.61h-5.29v.58h4.61v.11c0,.73,0,1.55-.24,2.66h-5.25v.58h3.19v3.39h.7v-3.39h3.22v-.58h-1.16c.23-1.12.23-1.94.23-2.66v-.68Z"/><path class="cls-1" d="M245.41,111.13l1.8,1.58,1.91,1.35,2.03,1.24,1.58,4.74,1.24,4.74,1.01,4.85,1.13,4.85,1.24,3.27,1.24,3.27,1.35,3.27,1.24,3.38.79,3.5.45,3.83-1.46,3.38-1.46,3.27-5.74,2.14-.45,2.71-.23,2.82v2.48l2.03,1.35,2.36.9,2.59.34,2.81.45,2.93.45,2.81.68,2.7,1.02,2.36,1.02,2.25.9,2.14,4.06,1.91,4.29,1.91,4.17,2.03,4.06,2.36,3.83,2.59,3.61,7.43.45,7.2.56v1.35l-.23,1.02v7.44h-5.52l-.45-.11h-.45l-.34.11-.23.23h-5.52l-.23.11h-5.07l-.56.11-4.5.56-4.28.9-4.28.68h-9.23l-1.69-1.69-1.58-1.58-1.91-1.35-1.01-.34h-1.24l-.79.34-5.29,2.93-5.97,2.37-6.3,1.92-2.48-2.03-2.36-2.26-2.25-2.14-.79-1.13-1.24-1.01-1.13-1.47-1.01-1.92-.79-1.92-.34-2.03.34-1.58.45-1.8.79-1.92,1.58-5.3,1.58-5.3.56-1.92.68-1.8.23-1.8-.11-2.48-.45-2.48-.56-2.26-.9-3.16-1.01-3.38-2.03-1.13-2.14-.79-1.91-1.02v-.79l.23-.79v-9.47l.11-.79v-9.7l.34-.56-.23-1.13v-4.96l.34-3.27.11-3.05.45-2.71.9-2.37,1.13-1.92,1.69-1.58,1.69-1.58,1.46-1.8,1.13-1.8.79-1.69,1.13-1.8,4.16-.56,4.16-.9,4.28-.56ZM245.76,192.88h-.68v1.12h-3.2v.58h7.11v-.58h-3.22v-1.12ZM242.27,192.72l.25.54c1.28-.15,2.48-.71,2.91-1.58.43.86,1.63,1.42,2.91,1.58l.25-.54c-1.36-.15-2.66-.82-2.72-1.69h2.48v-.56h-5.83v.56h2.47c-.06.88-1.37,1.54-2.72,1.69ZM242.72,196.55c0,.86,1.01,1.34,2.7,1.35,1.68,0,2.69-.49,2.7-1.35,0-.87-1.02-1.35-2.7-1.35s-2.69.48-2.7,1.35ZM243.42,196.55c0-.51.74-.81,2-.81s2,.3,2,.81-.74.81-2,.81-2-.3-2-.81ZM256.8,196.35h-3.26v-1.46h2.54v-.58h-4.86v-1.28h4.68v-2.36h-5.38v.58h4.7v1.22h-4.68v2.41h2.32v1.46h-3.21v.59h7.15v-.59ZM263.6,190.61h-5.29v.58h4.61v.11c0,.73,0,1.55-.24,2.66h-5.25v.58h3.19v3.39h.7v-3.39h3.22v-.58h-1.16c.23-1.12.23-1.94.23-2.66v-.68Z"/><path class="cls-1" d="M257.84,218.51l1.8.22,4.51,4.5,4.28.34,3.94-.11,3.83-.68,3.83-.56,3.72-.56,3.83-.45h1.91l.23-.11h5.18l.56-.22h5.07l.68-.22h4.28v6.41l-.11.34-.23.22v4.61l-1.01,2.25-1.01,1.91-1.35,1.91-1.58,1.58-2.93,2.93-.11.11h-.23l-.9.79-.79.9-.68,1.01-1.69,3.94-1.8,3.83-1.91,3.94-1.92-1.01-1.91-1.13-1.92-1.24-2.14-.79-.23-.22-.45-.11h-.23l-.45.11h-4.17l-.23-.11-.34-.11h-.9l-.45.11-.23-.11-2.25.11-1.8-.34-1.46-.68-1.13-.9-1.01-1.01-1.01-1.24-1.01-1.01-1.24-.9-1.01-.11h-4.73l-.68.11h-5.97l-.79.34-7.55.56-7.55.56-1.13-4.61-1.46-4.61-1.8-4.28,2.03-1.58,2.14-1.69,1.91-1.69,1.69-1.91,1.46-2.25,4.62-1.13,4.39-1.46,4.17-1.8,1.01-.56,1.01-.79,1.01-.56,1.01-.45,1.35-.34ZM267.99,235.76h-7.11v.56h3.2v.84c-1.49.07-2.35.55-2.36,1.38,0,.87,1.01,1.36,2.7,1.37,1.68,0,2.69-.5,2.7-1.37,0-.83-.88-1.31-2.36-1.38v-.84h3.22v-.56ZM261.27,234.73l.25.54c1.28-.15,2.48-.72,2.91-1.59.43.87,1.63,1.44,2.91,1.59l.25-.54c-1.38-.14-2.66-.83-2.72-1.71h2.48v-.56h-5.83v.56h2.47c-.06.88-1.37,1.57-2.72,1.71ZM262.42,238.53c0-.53.75-.84,2-.85,1.24,0,2,.32,2,.85s-.76.83-2,.83-2-.31-2-.83ZM274.83,232.61h-5.29v.58h4.61v.11c0,.73,0,1.55-.24,2.66h-5.25v.58h3.19v3.39h.7v-3.39h3.22v-.58h-1.16c.23-1.12.23-1.94.23-2.66v-.68Z"/><path class="cls-1" d="M322.49,223.54h1.35l.23.11h1.69l4.95.23,4.84.23,1.46,4.18,1.24,4.18,6.87,2.26,6.75,2.37,6.75,2.37,6.53,2.71-1.01,5.87-1.13,5.42-1.46,5.08-1.69,4.51-2.25,4.51-1.46,1.69-1.46,1.47-1.35,1.69-1.01,1.69-.34,2.14v1.92l-.11,1.92-.68,3.16-.9,3.16-.9,3.27-3.83-2.14-3.94-2.37-4.16-2.14-4.28-2.26-4.5-1.92-4.84-1.35-2.25-.23-2.59-.23-2.7-.11-4.28-.11-3.94.11-3.71.45-3.6.56-3.83.79-4.39-17.15,2.14-3.95,1.91-4.29,2.03-4.18,2.7-2.71,3.04-2.93,1.35-1.69,1.24-1.92,1.13-2.03,1.01-1.92.34-.9-.23-1.02v-4.29l.34-.56v-4.63l.9.68.68.68.9.79.9.56,1.35.11.11.11.34.23h.45l.23-.23h3.15l.68-.56.45-.68.56-.9.45-.9.79-.56,1.01-.34ZM318.56,253.33v-.77h-.68v.79c0,1.22-.81,2.26-2.02,2.68l.38.56c.95-.35,1.66-1.08,1.99-2.02.34.82,1.02,1.46,1.88,1.78l.4-.54c-1.16-.39-1.95-1.37-1.94-2.48ZM317.13,258.44c0,.93.99,1.45,2.61,1.46,1.63,0,2.63-.53,2.63-1.46s-1-1.49-2.63-1.49c-1.62,0-2.62.55-2.61,1.49ZM317.82,258.44c0-.59.74-.95,1.93-.94,1.2,0,1.94.34,1.94.94,0,.56-.75.9-1.94.9s-1.94-.34-1.93-.9ZM319.91,254.34h1.75v2.39h.68v-4.63h-.68v1.67h-1.75v.56ZM330.78,255.96h-3.24v-.92h2.39v-.56h-4.7v-1.46h4.65v-.56h-5.33v2.57h2.32v.92h-3.22v.56h7.13v-.56ZM324.5,258.5c0,.9,1.02,1.4,2.7,1.4s2.69-.5,2.7-1.4c0-.89-1.02-1.4-2.7-1.4s-2.69.51-2.7,1.4ZM325.2,258.5c0-.54.75-.86,2-.86s2,.32,2,.86-.76.86-2,.86-2-.31-2-.86ZM337.6,252.61h-5.29v.58h4.61v.11c0,.73,0,1.55-.24,2.66h-5.25v.58h3.19v3.39h.7v-3.39h3.22v-.58h-1.16c.23-1.12.23-1.94.23-2.66v-.68Z"/><path class="cls-1" d="M258.43,250.14l.91.11.57.45,1.25.89,1.02,1.01.91.89,1.02,1.01,1.13.78,1.47.56,1.7.34,2.15-.22.23.22.45.11h.23l.45-.11h4.19l.23.11.34.11h.91l.45-.11.23.11,2.83,1.34,2.72,1.56,2.49,1.68,1.36,5.7,1.59,5.7,1.13,5.37-4.87,3.35-4.42,4.14-4.42,4.36-4.31,4.69-4.31,4.36-4.42,4.02-4.42,4.14-1.47,1.45-1.36,1.34-1.47.89-1.59.67-2.27.45-2.61.11-3.17.22h-3.29l-3.06-.22-2.83-.22-2.04-.56-1.59-.89-1.36-1.45-1.36-1.45-1.36-1.45-2.49-3.13-2.49-2.79-.79-1.12-1.02-1.01-1.13-1.01-.45-.22-.34-.22-.23-.34-.34-.34-.34-.34-2.38-2.35-1.02-1.23-1.13-1.01-2.95-3.02-2.83-3.24,3.29-2.91,3.06-3.13,3.17-3.13,3.06-3.24,2.61-3.58,2.61-3.58,2.15-4.14,1.81-4.36,1.47-4.81,4.87-.45,4.99-.45,5.1-.34h5.21l.68-.11h5.89ZM243.99,281.96h-1.76v-1.11c.61-.24.96-.64.95-1.16,0-.91-1.05-1.44-2.75-1.44s-2.76.53-2.77,1.44c0,.53.36.93.99,1.17v1.1h-1.76v.58h7.11v-.58ZM237.72,284.52c0,.89,1.01,1.38,2.7,1.39,1.68,0,2.69-.5,2.7-1.39,0-.89-1.02-1.39-2.7-1.39s-2.69.5-2.7,1.39ZM238.37,279.69c0-.56.78-.9,2.05-.9s2.06.34,2.05.9c0,.58-.78.91-2.05.9-1.27,0-2.05-.32-2.05-.9ZM238.42,284.52c0-.53.75-.85,2-.85s2,.31,2,.85-.76.85-2,.85-2-.31-2-.85ZM239.32,281.96v-.92c.32.06.69.09,1.1.09s.78-.03,1.12-.09v.92h-2.21ZM247.28,279.56v-.99h-.68v.97c0,1.22-.79,2.27-1.98,2.7l.38.54c.93-.35,1.63-1.07,1.97-2,.34.83,1.04,1.49,1.92,1.8l.34-.54c-1.14-.41-1.95-1.4-1.94-2.48ZM245.87,285.74h5.24v-.58h-4.54v-1.85h-.7v2.43ZM250.07,283.87h.68v-2.79h1.17v-.58h-1.17v-2.41h-.68v5.78ZM258.6,278.61h-5.29v.58h4.61v.11c0,.73,0,1.55-.24,2.66h-5.25v.58h3.19v3.39h.7v-3.39h3.22v-.58h-1.16c.23-1.12.23-1.94.23-2.66v-.68Z"/><path class="cls-1" d="M133.16,181.85l.9.9.79,1.24.56,1.13.56,1.01.79,1.01,1.02.79,1.13.45,1.81.11,1.47,2.7,1.92,2.14,2.37,1.92,2.37,1.8,2.48,1.8,4.18,3.04,3.95,3.04,3.39,3.27,3.05,3.61,2.94,3.38,3.05,3.04,2.15,1.8,2.37,1.58,2.03,1.92,2.82,2.82h.11l.23.11h.11l2.94,2.93,2.71,2.82h.11l.11.11h.23l2.71,2.82.79.9.9.9.9.56,4.07.56,4.63.45,4.63.45,4.52.45,1.47.11,1.58.34,1.47.11h1.36l1.13-.56,1.24-.9,1.02-1.01,1.13-.9,1.36-.56.79,2.25.79,2.03.9,2.25.45,1.24.45,1.69.56,1.58.34,1.58.11,1.24-.11,1.13-.45,1.46-.45,1.8-.56,1.69-.45,1.47-.45,1.01-1.47,3.16-1.92,3.04-2.26,2.59-2.03,2.7-3.95,4.39-4.29,4.28-4.29,3.83-1.47-1.46-1.47-1.47-3.39-2.7-3.28-2.48-3.39-2.48-5.53-3.04-5.76-2.59-5.99-2.25-5.99-2.37-3.73-1.46-3.84-1.92-3.84-1.92-3.95-1.69-3.84-1.8-3.5-1.92-2.49-1.92-2.37-2.37-2.48-2.14-9.38-8.11-9.15-8-1.24-1.13-1.36-1.24-1.02-1.01-.9-1.46-.79-1.8-.56-1.69-.68-1.69-1.36-1.69-1.69-1.92-1.47-1.8-1.92-2.25-1.69-2.14-2.15-1.8-2.15-1.46v-.11l1.81-1.01,1.92-1.46,1.69-1.69,1.92-1.35,1.81-.79,2.6-.34,2.71.11h2.6l2.94-.11,2.15-2.03,2.15-2.25,1.02-1.01,1.24-1.24,1.02-1.24.56-1.01.23-1.35.11-1.35.68-1.46,1.24-1.24,1.13-1.13,1.02-1.35ZM156.8,235.9h-3.6v5.02h3.6v-5.02ZM153.86,240.36v-3.93h2.25v3.93h-2.25ZM158.22,242.92h.7v-4.1h1.3v-.59h-1.3v-3.12h-.7v7.81ZM167.8,241.35h-3.28v-1.8h2.57v-.56h-1.22v-2.56h1.24v-.58h-5.83v.58h1.24v2.56h-1.22v.56h2.56v1.8h-3.21v.59h7.15v-.59ZM163.21,238.99v-2.56h1.98v2.56h-1.98ZM174.6,235.61h-5.29v.58h4.61v.11c0,.73,0,1.55-.24,2.66h-5.25v.58h3.19v3.39h.7v-3.39h3.22v-.58h-1.16c.23-1.12.23-1.94.23-2.66v-.68Z"/><path class="cls-1" d="M35.75,168.92l5.3,3.05,5.19,3.38,4.85,3.5,1.58,1.24,1.8,1.13,1.47,1.24,1.47,1.58,1.35,1.92,1.35,1.92,2.14,2.93,2.14,2.71,2.59,2.37,2.82,2.37,2.48,2.26,2.03,2.59,1.8,2.71,1.92,2.82,2.26,2.48,2.03,1.69,2.37,1.35,2.59,1.24,2.59,1.35,1.8,1.24,1.92,1.13,1.58.79,1.58.68,1.13.79,1.35,1.24,1.24,1.69,1.13,1.58,1.47,1.69,1.35,1.47,1.13,1.24,1.02,2.37.9,2.37,1.24,2.26,1.69,2.14,2.26,2.14,2.14,1.92,2.26,1.92,4.62,3.84,4.51,3.95.56,2.03.34,2.37.11,2.48v.45h-6.65l-1.58-.56-1.47-.56-1.8-.34-1.92-.23-1.24,1.92-1.24,1.92-1.13,1.81-.23,3.84-.23,3.72-.23,3.84-2.93,4.63-2.59,4.96-2.26.79-2.37,1.13-2.14,1.02-2.37.56-1.24-.11-1.24-.34-1.35-.23-1.13-.34-2.37-.45-2.14-.68-1.92-.79-1.58-1.02-1.35-1.47-.56-1.35-.56-1.47-.56-1.58-2.14-4.63-1.69-4.4-.79-1.81-.45-1.58-.68-1.35-.79-.9-1.13-.79-1.02-.79-.9-.45h-1.92l-1.92.45-1.92.34h-1.69l-1.69,3.05-1.69,3.16-4.51-.34-4.74-.34-1.58-.11-2.14-.34-2.03-.11-1.92-.11-1.58.11-1.47.9-1.35,1.35-1.35,1.58-1.13,1.35-2.48,2.82-2.71,2.37-1.35-2.82-1.24-3.16-.68-1.47-.56-1.69-.56-1.69-.9-1.13-.9-.56-1.24-.68-1.47-.45-1.35-.45-8.01-3.05-7.44-2.93-.34-2.82-.56-2.59-.9-2.26-.9-2.26-1.02-2.14,1.02-.9,1.24-.56,1.24-.68,1.24-.56,1.02-1.02.45-1.13.11-1.69.34-1.58,1.02-4.4,1.13-4.63,1.24-4.06,3.05-1.35,3.27-1.35,1.35-.45,1.24-.56,1.58-.56,1.13-.79.9-.9.56-1.58.34-1.92.11-2.03.34-2.14.79-8.01,2.26-2.26,2.48-2.37,1.24-.68,1.02-.9,1.02-.9.9-1.24.56-1.13.34-1.58-.23-1.92.23-.9v-4.4l-.45-2.37-.79-2.37-.68-2.26-.45-2.37.11-2.14.56-1.35,1.02-1.02,1.24-1.24.68-1.24ZM47.87,239.25l.29.56c2.28-.68,3.68-2.13,3.69-4.12h-3.64v.58h2.88c-.13,1.35-1.34,2.43-3.22,2.99ZM48.95,241.39c0,.95,1,1.5,2.56,1.51,1.57,0,2.56-.57,2.56-1.51s-.99-1.51-2.56-1.51-2.57.57-2.56,1.51ZM49.64,241.39c0-.59.72-.96,1.87-.95,1.14,0,1.88.36,1.89.95,0,.58-.75.95-1.89.95s-1.88-.38-1.87-.95ZM53.98,235.1h-.68v4.68h.68v-2.09h1.17v-.56h-1.17v-2.03ZM58.39,237.19v-1.42h-.68v1.42c-.02,1.44-.92,2.94-2.07,3.51l.45.56c.89-.48,1.62-1.48,1.96-2.65.35,1.12,1.09,2.04,1.98,2.5l.41-.56c-1.14-.52-2.05-1.94-2.05-3.37ZM59.59,238.33h1.84v4.59h.68v-7.81h-.68v2.67h-1.84v.56ZM69.6,235.61h-5.29v.58h4.61v.11c0,.73,0,1.55-.24,2.66h-5.25v.58h3.19v3.39h.7v-3.39h3.22v-.58h-1.16c.23-1.12.23-1.94.23-2.66v-.68Z"/><path class="cls-1" d="M114.3,263.8l2.15.45,1.81.56,1.92.68,1.81.23h1.92l1.92-.11,1.7.34,1.7,3.38,1.47,3.61,1.36,3.61,1.58,3.38.9,1.13.9,1.02.68,1.35.34,2.03v2.26l.11,2.26-3.28,2.93-3.5,2.82-3.28,3.05v5.41l-.23,1.8v13.31l-.68,2.48-1.02,2.37-1.02,2.14-1.02,2.14-1.02,2.26-.11.23h-1.7l-.11.11-2.71.11-2.6.23h-2.49l-2.37-.34-2.04-.56-1.81-1.02-1.36-4.17-1.47-3.95-2.49-.34-2.83-.11-.34-.11h-4.52l-2.83,2.48-2.94,2.59-2.83,2.59-3.28,2.26h-5.54l-1.02-.11-.79.34h-2.15l-1.13-2.93-1.13-2.82-10.74-1.92.68-1.8,1.24-2.03,1.13-2.03,1.02-2.14.57-1.92.34-3.5-.11-3.95-.23-4.17v-7.67l.23-3.38.11-3.38v-3.05l-.34-2.82-.68-2.26-1.13-2.03-1.24-1.8-.57-1.58.9-1.92,1.02-1.92,1.13-1.8h1.81l1.58-.23,1.47-.34h1.36l.9.45.9.68.9.79.57.68.57,1.35.57,1.69.57,1.58,1.58,3.38,1.58,3.5,1.47,3.61,1.13,3.16,1.92,1.69,2.37,1.13,2.71.9,3.05.79,1.92.45,1.92.23,1.7.23,2.71-.68,2.6-1.13,2.26-1.24,2.37-.79.79-2.14,1.36-2.03,1.24-2.03,1.36-1.92.9-1.92.34-2.26v-6.88l.34-2.14.68-1.47.68-1.13.9-1.02.9-1.24ZM86.02,305.41c0,1.08.86,1.83,2.05,1.84,1.19,0,2.04-.76,2.05-1.84,0-1.09-.86-1.85-2.05-1.84-1.19,0-2.06.75-2.05,1.84ZM86.7,305.41c-.02-.74.57-1.26,1.37-1.26s1.37.52,1.39,1.26c-.02.74-.59,1.24-1.39,1.26-.8-.02-1.39-.52-1.37-1.26ZM86.88,309.44c0,.91.99,1.45,2.59,1.46,1.59,0,2.57-.55,2.57-1.46s-.98-1.47-2.57-1.48c-1.6,0-2.59.55-2.59,1.48ZM87.57,309.44c0-.57.73-.9,1.91-.9s1.9.33,1.91.9c0,.57-.73.89-1.91.9-1.18,0-1.91-.33-1.91-.9ZM93.13,304.28h-1.15v-1.17h-.68v4.63h.68v-1.21h1.15v-.59h-1.15v-1.08h1.15v-.58ZM96.31,304.96v-.25h1.75v-.56h-1.75v-1.01h-.68v1.01h-1.76v.56h1.76v.25c0,1.11-.81,2.08-1.96,2.47l.34.54c.92-.32,1.63-.99,1.97-1.85.35.81,1.06,1.43,1.97,1.73l.34-.56c-1.16-.37-1.99-1.27-1.98-2.32ZM95.11,310.74h5.24v-.58h-4.56v-1.75h-.68v2.32ZM97.81,306.08h1.62v2.86h.68v-5.83h-.68v2.41h-1.62v.56ZM107.6,303.61h-5.29v.58h4.61v.11c0,.73,0,1.55-.24,2.66h-5.25v.58h3.19v3.39h.7v-3.39h3.22v-.58h-1.16c.23-1.12.23-1.94.23-2.66v-.68Z"/><path class="cls-1" d="M130.82,258.76l3.38,2.71,3.04,2.94,3.15,2.94,3.38,2.71,2.48,1.47,2.59,1.13,2.81,1.36,5.85,2.94,6.08,2.94,6.19,2.71,6.3,2.15.9,4.64.68,4.3.79,4.3.9,3.96,1.46,3.62,1.24,2.26,1.8,1.81,2.03,1.47,2.14,1.36,2.14,1.47v.11l-3.6,5.88-3.38,6.11-3.04,6.33-.11,4.52-.56,4.18-.79,3.84-1.13,3.51-1.46,3.28-2.03.45-2.59.34-2.25.45-2.36.34-1.91.79-.79.45-1.01.9-1.13,1.02-1.13,1.02-.79.9-.45.68-.68,2.26-.11,2.37-.11,2.49-.56,2.49h-.68l-.45.23-.34.23-.34.23-.45.11-3.83-2.49-3.49-2.6v-1.24l-.23-.34.23-.45v-.68l-.23-.34-.11-.11v-3.73l.11-.45v-.45l-.11-.23-.11-.23v-4.97l-.23-.11.23-1.7-.23-1.13-.56-.9-.56-.9-.68-.68-.68-.9-.45-.9-.56-2.83-.45-2.94-.45-2.94-2.03-8.25-5.29-3.28-5.4-3.17v-17.53l.23-1.02v-2.71l2.25-1.92,2.59-2.37,1.35-.79,1.46-1.13,1.35-1.13.68-1.36.23-1.58-.34-1.7-.23-1.92v-2.04l-1.69-2.49-1.46-2.71-1.35-2.94-1.13-3.05-1.01-2.04-.9-2.15-.9-1.92-.56-2.15-.45-2.37-.11-2.71ZM181.81,287.48l4.84,2.15,4.39,2.71,3.94,2.94,3.83,3.39,3.6,3.39,3.38,3.73,3.38,3.62-.23.34-.56.11h-.68l-.9-.11h-.79l-.45.34h-3.38l-3.15.11h-3.15l-2.81-.57-2.14-1.02-2.14-1.7-1.69-1.92-1.8-1.58-1.13-3.73-.9-3.84-.9-4.07-.56-4.3ZM147.61,311.24h2.04v-1.13h.68v4.63h-.68v-1.12h-2.05c-.37.41-.93.66-1.58.65-1.17,0-2.03-.76-2.02-1.84-.02-1.1.85-1.86,2.02-1.85.67,0,1.23.24,1.59.67ZM146.02,313.69c.77,0,1.36-.54,1.35-1.26,0-.75-.58-1.27-1.35-1.26-.79,0-1.37.51-1.37,1.26s.58,1.26,1.37,1.26ZM147.74,314.91c1.62,0,2.63.55,2.63,1.49s-1.01,1.49-2.63,1.49c-1.61,0-2.62-.55-2.61-1.49,0-.95,1-1.49,2.61-1.49ZM147.74,317.34c1.21,0,1.95-.35,1.96-.94,0-.6-.76-.95-1.96-.95s-1.94.35-1.93.95c0,.58.74.94,1.93.94ZM148.03,312.43c0,.22-.04.42-.1.61h1.72v-1.24h-1.72c.06.19.1.4.1.63ZM158.78,314.39h-7.13v-.58h7.13v.58ZM155.2,315.07c1.68,0,2.69.51,2.7,1.42,0,.89-1.02,1.4-2.7,1.4-1.68,0-2.69-.51-2.7-1.4,0-.91,1.02-1.41,2.7-1.42ZM152.55,310.41h5.33v.58h-4.65v1.51h4.7v.58h-5.38v-2.67ZM155.2,317.34c1.24,0,2-.31,2-.85s-.76-.87-2-.88c-1.25,0-2,.32-2,.88s.75.85,2,.85ZM166.57,316.95h-7.15v-.59h3.2v-1.8h-2.56v-.56h1.22v-2.56h-1.24v-.58h5.83v.58h-1.24v2.56h1.22v.56h-2.57v1.8h3.28v.59ZM163.96,313.99v-2.56h-1.98v2.56h1.98ZM173.38,311.29c0,.73,0,1.55-.23,2.66h1.16v.58h-3.22v3.39h-.7v-3.39h-3.19v-.58h5.25c.24-1.12.24-1.94.24-2.66v-.11h-4.61v-.58h5.29v.68Z"/><path class="cls-1" d="M127.69,324.17l2.48,1.36,2.48,1.58,1.24.68,1.46.68,1.35.79.9.79.34,1.13.45,1.47.34,1.24,1.46,6.45.9,6.79.68.91.79.68.56.91.56,1.02.34,1.24-.11,1.58v1.81l.11.23v4.64l.11.23.23.34v3.73l-.23.23v.45l.23.34.11.23v1.02l-1.46.91-1.35.91-1.35.91-1.58.91-1.91.23-.34.23-.34-.23h-.9l-.34.23-.34.11h-3.6l-.45-.11h-.45l-.34.11-.23.11h-9.91l-1.01-.11-.11-1.92v-1.92l.11-1.92-.11-1.81-.56-1.58-.68-.68-1.01-.79-1.13-.57-.9-.45-1.01-.79-1.01-.68-1.24-.57-.9-.23-.79.23-1.13.23-1.01.57-.68.45-1.91.91-1.69.91-.68.57-.79,1.02-.79,1.02-.68,1.13-.45.68-.23,1.36-.23,1.47v1.36l-.11,1.36-.45.79-.68.79-2.82,2.83-3.72,3.62-.23.45-.45.45-.34.45-.45.34-2.82,2.83-3.6,3.62-.79.79-.56.91-.56.68-.9.45-1.91.34h-2.25l-2.03-.23-1.91-.11-2.03-.57-1.8-.91-1.91-.45-2.82.34-2.59.68-2.7.79-2.48.45h-1.91l-1.91-.34-1.91-.34,3.27-7.02,3.38-7.24.9-1.81.9-1.58.45-1.7-.34-1.58-.9-1.92-1.01-1.92-.9-1.92-.56-1.02-.56-1.36-.79-1.47-.56-1.36-.56-1.36-.23-.79.23-.79.45-1.02.56-1.02.56-.91,1.91-4.19,1.91-3.96,1.8-4.07,1.35-4.3.79-4.64v-.45l-.23-.45-.23-.23-.34-.23-.34-.23-.11-.34-.34-.23,4.17.57,3.72.68.68,1.47.56,1.7.56,1.47.9,1.36h.11l.34.11h.9l.23-.11h7.21l1.46-.34,1.91-1.24,2.14-1.7,2.03-1.92,1.46-1.24,1.46-1.24.9-.91.68-.79.9-.68,1.01-.34,1.46.11.23.23h6.42l1.35,3.96,1.35,4.19,1.24.57,1.35.68,1.46.79,1.46.23h2.93l3.27-.23h4.84l.34-.11.9-1.13.9-1.24.79-1.47.68-1.7.79-1.92.79-1.7,1.01-1.7ZM95.05,343.61h-5.29v.58h4.61v.11c0,.73,0,1.55-.24,2.66h-5.25v.58h3.19v3.39h.7v-3.39h3.22v-.58h-1.16c.23-1.12.23-1.94.23-2.66v-.68ZM103.8,349.35h-3.26v-1.46h2.54v-.58h-4.86v-1.28h4.68v-2.36h-5.38v.58h4.7v1.22h-4.68v2.41h2.32v1.46h-3.21v.59h7.15v-.59ZM110.6,343.61h-5.29v.58h4.61v.11c0,.73,0,1.55-.24,2.66h-5.25v.58h3.19v3.39h.7v-3.39h3.22v-.58h-1.16c.23-1.12.23-1.94.23-2.66v-.68Z"/><path class="cls-1" d="M145.83,371.61l1.34.68,1.45,1.24,1.45,1.13,1.45,1.13,1.67.56,1.56.11,1.56-.68,1.34,2.48,1.34,2.36,2.46,1.01,2.34,1.13-.11,1.91-.22,2.25-.11.11v1.58l.11.23.78,7.65.89,7.65.89,7.31.11,2.81.33,2.48.45,2.36.67,1.46,1.12,1.46,1.23,1.46.67,1.46,2.57.79,2.46.9.89,3.15,1,3.26-.33.45-.11.34-.33.23-.45.34-.22.11-.33.34-2.34.9-1.67,1.24-1.45,1.69-1.23,1.91-.89,2.14-.89,2.36-.56,2.48-1.67.45-1.67.9-1.79.9-1.56.9-1.79.56-2.68.11-2.79-.23-2.9-.45h-3.13l-2.01-7.65-2.23-8.21-2.23-8.44-2.23-8.1-.45-1.58-.33-2.03-.33-2.14-.67-2.03-.67-1.58-.89-1.24-1-.45-1.34-.11h-1.34l-1.12-.11-.78-5.18-1.12-4.73-1.34-4.39-1.56-4.28-1.79-4.05-1.56-4.16-1.67-4.28h2.79l1.45.11h1.79l1.34-.11h3.13l.33-.11.45.11h.89l.22-.11.33-.11h3.68l.45.11h.33l.33-.11.33-.23,1.9-.45,1.56-.68,1.45-1.01,1.45-1.13,1.56-.68ZM141.09,391.52h-5.31v.58h4.63c0,.61,0,1.32-.23,2.3h-5.29v.56h7.15v-.56h-1.15c.22-.98.22-1.7.22-2.3v-.58ZM135.76,398.81h5.37v-2.77h-5.37v2.77ZM136.42,398.24v-1.64h4.02v1.64h-4.02ZM145.31,392.96v-.25h1.75v-.56h-1.75v-1.01h-.68v1.01h-1.76v.56h1.76v.25c0,1.11-.81,2.08-1.96,2.47l.34.54c.92-.32,1.63-.99,1.97-1.85.35.81,1.06,1.43,1.97,1.73l.34-.56c-1.16-.37-1.99-1.27-1.98-2.32ZM144.11,398.74h5.24v-.58h-4.56v-1.75h-.68v2.32ZM146.81,394.08h1.62v2.86h.68v-5.83h-.68v2.41h-1.62v.56ZM156.6,391.61h-5.29v.58h4.61v.11c0,.73,0,1.55-.24,2.66h-5.25v.58h3.19v3.39h.7v-3.39h3.22v-.58h-1.16c.23-1.12.23-1.94.23-2.66v-.68Z"/><path class="cls-1" d="M193.75,315.55l4.88.56,5,.22,5.22-.22h4.43l2.04-.11.68-.11.57-.22.45-.11,7.27,8.09,1.7,2.02,1.82,2.25,2.04,1.91,2.38,1.46,2.27.67,2.5.45,2.84.34,2.84.45.57,2.47.45,2.47.68,2.25,2.16.34,2.16.11,2.27.11,2.04.11,2.27,4.61,2.04,4.61-1.48,4.38-1.25,5.06-.79,5.51-.45,4.72v4.16l.23,4.05.91,3.6-1.36.79-1.48.67-1.48.67-1.59.45-1.82.22-2.38-.11h-3.18l-2.38-1.8-2.27-1.91-1.59-1.12-1.7-1.35-1.14-1.46-.91-1.91-.45-2.36-.45-2.36-.57-2.14-1.14-4.27-1.25-4.38-3.41-1.35-3.29-1.35-3.41-1.35-3.63-1.12h-12.49l-1.82.11h-11.69l-2.04.34-.91,1.01-.57,1.35-.45,1.46-.57,1.46-.68,1.24-1.93.9-2.16.45-2.27.34-2.38.11-2.16.45-1.7.79-1.59,1.01-1.59,1.12-1.48,1.01-1.7.79-1.7.34.57-4.27.68-4.16,1.25-1.01,1.02-1.24,1.36-1.01,1.25-1.01,2.72-.67,2.84-.67,2.95-.45,2.95-.67.91-2.36,1.02-2.36,1.02-2.36.79-2.36.23-3.03v-3.26l.34-3.37.45-1.35.57-1.46.79-1.35,2.61-5.28,2.84-4.83,2.84-4.38ZM212,342.96h-3.24v-.92h2.39v-.56h-4.7v-1.46h4.65v-.56h-5.33v2.57h2.32v.92h-3.22v.56h7.13v-.56ZM205.72,345.5c0,.9,1.02,1.4,2.7,1.4s2.69-.5,2.7-1.4c0-.89-1.02-1.4-2.7-1.4s-2.69.51-2.7,1.4ZM206.42,345.5c0-.54.75-.86,2-.86s2,.32,2,.86-.76.86-2,.86-2-.31-2-.86ZM215.3,340.55v-.34h1.75v-.56h-4.21v.56h1.78v.34c0,1.13-.83,2.12-2,2.54l.38.54c.91-.33,1.63-1.03,1.96-1.91.34.8,1.02,1.44,1.91,1.75l.34-.52c-1.15-.41-1.92-1.35-1.91-2.4ZM213.64,344.79h4.43v2.12h.68v-2.7h-5.11v.58ZM218.07,343.8h.68v-2.05h1.17v-.59h-1.17v-2.05h-.68v4.7ZM226.6,339.61h-5.29v.58h4.61v.11c0,.73,0,1.55-.24,2.66h-5.25v.58h3.19v3.39h.7v-3.39h3.22v-.58h-1.16c.23-1.12.23-1.94.23-2.66v-.68Z"/><path class="cls-1" d="M197.6,360.11h16.42l5.96,2.37,5.74,2.48,2.25,8.57,2.14,8.69,4.95,4.06,4.84,3.84,1.24.34h2.81l.34-.11.45.11h.9l.22-.11.34-.23,1.57.23,1.46-.45,1.24-.56,1.01-.68,1.01-.56,1.01-.34-.11,2.82.22,2.26.45,2.03.79,1.81.9,1.92,2.02,4.29,2.14,4.29,2.25,3.95,2.36,3.5-1.46.34-1.35.11-1.46.45-13.83,13.88-2.47,2.48-2.92,2.82-1.8,1.92-1.91,1.81-2.02,1.69-2.14,1.35-2.59,1.24-2.59,1.47-1.91,1.13-1.8,1.35-1.91,1.02-1.69.79-1.8.11h-3.82l-5.74.11-2.02.11-2.36.34-2.7.11h-2.36l-1.91-.11-1.57-.56-1.46-1.02-1.46-1.02-1.57-.9-.67-1.35-.45-1.58-.22-1.92-.45-1.69-.56-1.58-.79-1.02-1.12-.79-1.35-.45-1.46-.11-1.57-.11-1.69-.45,1.01-1.02.34-1.24-.11-1.35-.45-1.47-.56-1.58-.45-1.47-.45-1.35-2.36-1.02-2.7-.79-.67-1.47-1.01-1.24-1.24-1.58-.67-1.47-.34-2.26-.34-2.59-.22-2.82-.9-7.45-.9-7.56-.45-7.11-.11-6.77-2.36-1.13-2.47-1.02-1.24-2.26-1.12-2.14,2.36-.79,2.02-1.13,1.91-1.35,1.91-1.35,1.91-.9,2.02-.45,2.14-.11,1.91-.11,1.91-.23,1.69-.56,1.8-1.02,1.12-3.05,1.24-3.16h8.32l1.91.11,1.69-.23ZM199.82,402.16l.07.58c1.4,0,3.28-.04,4.92-.32l-.05-.5c-.81.12-1.7.18-2.57.22v-1.69h-.68v1.71c-.6.02-1.17.02-1.67.02ZM204.19,398.7h-3.89v.58h3.22c0,.5-.03,1.16-.22,2.11l.68.05c.2-1.03.2-1.81.2-2.32v-.41ZM201.03,405.74h5.22v-.58h-4.52v-1.71h-.7v2.29ZM205.29,403.97h.7v-2.74h1.13v-.59h-1.13v-2.54h-.7v5.87ZM209.85,398.57c-1.19,0-2.06.75-2.05,1.84,0,1.1.86,1.85,2.05,1.85,1.19,0,2.04-.76,2.05-1.85,0-1.09-.86-1.85-2.05-1.84ZM208.48,400.41c-.02-.74.57-1.25,1.37-1.24.79,0,1.37.5,1.39,1.24-.02.75-.59,1.26-1.39,1.26s-1.39-.51-1.37-1.26ZM208.64,403.67h4.43v2.25h.68v-2.81h-5.11v.56ZM213.07,402.7h.68v-2h1.17v-.58h-1.17v-2.02h-.68v4.59ZM221.6,398.61h-5.29v.58h4.61v.11c0,.73,0,1.55-.24,2.66h-5.25v.58h3.19v3.39h.7v-3.39h3.22v-.58h-1.16c.23-1.12.23-1.94.23-2.66v-.68Z"/><path class="cls-1" d="M291.4,304.05l1.24,2.7,1.69,2.59,1.57,2.82,1.46,2.82,1.24,2.93.56,2.37.22,2.48.45,2.48.34,1.92.11,2.14.22,1.92.34,1.58,1.12,1.46,1.24,1.35,1.35,1.13,1.35,1.24.67,1.24.45,2.14.22,2.14v4.62l.22,3.04.34,2.93.45,2.82.56,2.37,1.01,2.25,1.46,1.69,2.47,2.7,2.81,2.7,1.69,1.01,1.69.79,1.91.79,1.8.9,5.4,5.63.9,3.94.9,4.06.9,4.06,1.01,3.94,1.12,3.72,1.46,3.38,1.91,3.04,3.71-1.13,3.93-1.24,4.27-1.01,4.61-.56,1.24-1.8,1.46-2.03.67-1.01.34-1.24.79-1.01.79-.9,1.57-.68,2.02-.79,2.36-.68,2.47-.34,2.7-.11,2.36.11,2.14.56,1.24.79,1.01,1.01,1.01.68.34.34.11.34v2.93l.11.11v4.62l.22.79v.79l1.46,1.92,1.46,1.8,1.24,1.92,3.82,2.37,3.15,2.7,2.59,3.38-1.12.68-1.46.23-1.46.34-1.46.45-1.24.56-.9.79-.45,1.13v1.13l.34,1.58-.11,1.24-.45,1.46-.56,1.46-.79,1.58-.11,1.24-1.69.34-1.57.11-1.57.23-1.35.23-1.01.79-.56,1.69-.45,1.8-.67,1.58-.79,1.24-1.46,1.01-1.57.56-2.02.56-2.02.34-1.91.45-1.46.34-1.8.23-1.69.34-1.35.45-1.01.68-.67,1.01-.22,1.46-.34,1.58-.11,1.58-.11,1.35-.79,3.61-.9,3.27h-7.31l-2.92-.45-2.81-.45-2.81-.45-3.82-2.48-4.05-2.82-4.05-2.59-1.01-.56-1.12-.68-1.24-.68-.56-.9-.11-1.01.11-1.01v-1.35l-.11-1.01-.9-4.39-1.01-4.28-1.24-4.17-1.12-4.17v-10.25l.34-.9-.22-1.13v-2.48l.22-1.69-.34-1.13v-1.24l-.56-.9-.56-.56-1.12-.23-1.01-.23-1.12-.11-1.01-.11-2.14-.68-1.91-.45h-1.69l-1.46.45-1.46,1.13-1.69,1.13-1.57,1.01-2.02,1.24-2.25,1.13-1.8,1.35-1.69,1.92-1.69,2.03-1.24,2.03-1.46,1.46-2.14.23h-2.36l-2.02-.23-.67-1.01-.34-1.24v-2.82l.11-1.46-.11-1.46-.34-1.13-.67-1.01-.9-1.01-1.01-.9-.79-.45-.9-.23h-2.47l-1.24.23-.9.68-.79,1.01-.45,1.01-.9.9-2.47-3.72-2.14-3.94-2.14-4.17-1.91-4.06-2.02-4.17v-5.18l-.11-2.37-1.01-4.06-.34-4.28.11-4.39.67-4.73.34-3.49.67-3.38.56-3.15.56-1.46.79-1.46.11-1.46-.45-1.8-.9-1.58-.9-1.46-1.01-2.7-1.12-2.37-4.16-.45-4.27-.11-.79-3.04-.67-3.27h8.09l3.71-.11,3.37-.45,3.26-1.01,1.69-1.13,1.91-1.58,1.69-1.58,1.69-1.69,6.74-6.42,6.63-6.65,6.07-6.65ZM281.61,375.19v-1.42h-.68v1.42c-.02,1.44-.92,2.94-2.07,3.51l.45.56c.89-.48,1.62-1.48,1.96-2.65.35,1.12,1.09,2.04,1.98,2.5l.41-.56c-1.14-.52-2.05-1.94-2.05-3.37ZM282.82,376.33h1.84v4.59h.68v-7.81h-.68v2.67h-1.84v.56ZM293.8,379.35h-3.26v-1.8h-.67v1.8h-3.22v.58h7.15v-.58ZM287.05,377.28l.27.54c1.25-.22,2.39-.85,2.89-1.83.5.98,1.65,1.61,2.89,1.83l.27-.54c-1.5-.23-2.81-1.15-2.81-2.38h2.56v-.56h-2.57v-1.08h-.67v1.08h-2.56v.56h2.54c0,1.22-1.31,2.14-2.81,2.38ZM300.6,373.61h-5.29v.58h4.61v.11c0,.73,0,1.55-.24,2.66h-5.25v.58h3.19v3.39h.7v-3.39h3.22v-.58h-1.16c.23-1.12.23-1.94.23-2.66v-.68Z"/><path class="cls-1" d="M315.28,294.7l2.84.21,3.82.21,3.38.53,3.06.85,2.95,1.17,3.38,1.6,3.27,1.81,3.49,2.02,3.27,1.91,3.38,1.81,3.38,1.49,3.71,1.17,4.04.64.33,1.17v6.81l-.22.96.33.53v8.4l.11.11v1.81l.33,1.38.44,1.28.55,1.06.76,1.17.55,1.38.55,1.38.55.96,1.2,1.06,1.42,1.17,1.42.96,1.96,1.7,2.18,1.49,2.4,1.06,2.51,1.17,1.64.85,1.64.96,1.64.53,3.38.85,3.71.43,3.6.53,3.38.74,1.42,1.49,1.53,1.49.76,2.45.65,2.13,3.6,2.45,3.71,2.23,3.38,2.34.65,3.19.55,3.09.22,2.23.33,2.02.44,1.91.55,1.17.87,1.28.87,1.06,2.51,3.72,2.51,3.83,2.07,3.83,1.86,4.15-1.75.32h-3.6l-1.75.43-.87.64-.76,1.17-.65,1.28-.55,1.38-.76,1.06-.65.85-1.2.74-.98.74-1.09.43-2.18.32h-2.18l-2.07.32-1.42.53-1.2.85-1.2.53h-1.75l-1.75-.11-1.96-.21-1.53-1.6-1.31-1.81-1.53-1.7-1.75-1.17-1.86-.96-1.75-1.06-.55-.74-.98-1.06-.87-1.28-.76-1.28-.55-1.06v-4.36l-.11-.11v-1.38l-.11-1.28v-1.38l-1.2-.85-1.09-.96-1.2-.85-1.2-.64-2.73-.53-3.06-.21-2.84.32-2.84.64-2.73.85-2.29.96-1.53,2.66-1.75,2.55-1.64,2.34-3.49.32-2.95.53-2.84.64-2.62.85-2.62.96-1.75-2.77-1.42-3.19-.98-3.51-.98-3.72-.76-3.72-.76-3.72-.76-3.62-5.57-5.43-1.86-.85-2.07-.74-1.86-.74-1.42-1.17-2.62-2.66-.22-.11-.11-.32-.11-.11-2.51-2.34-1.09-1.7-.76-1.81-.33-2.23-.33-2.45-.11-2.66-.22-2.66-.11-2.13v-2.02l-.11-2.13-.44-1.81-.87-1.17-1.09-1.28-1.53-1.17-1.2-1.17-.87-1.49-.55-2.02-.33-2.34-.33-2.23-.22-2.55-.44-2.45-.44-2.23-.98-2.23-1.42-2.23-1.2-2.13-1.86-3.62-1.53-3.4,1.86-1.7,1.96-1.49,1.31-1.28,1.31-1.28,1.42-.85,1.31-.21,1.53-.32,1.53-.11,2.62-.43,2.4-.11,2.62-.21ZM327.87,346.25l.29.56c2.28-.68,3.68-2.13,3.69-4.12h-3.64v.58h2.88c-.13,1.35-1.34,2.43-3.22,2.99ZM328.95,348.39c0,.95,1,1.5,2.56,1.51,1.57,0,2.56-.57,2.56-1.51s-.99-1.51-2.56-1.51-2.57.57-2.56,1.51ZM329.64,348.39c0-.59.72-.96,1.87-.95,1.14,0,1.88.36,1.89.95,0,.58-.75.95-1.89.95s-1.88-.38-1.87-.95ZM333.98,342.1h-.68v4.68h.68v-2.09h1.17v-.56h-1.17v-2.03ZM336.03,345.92h.61c1.18,0,2.36-.09,3.69-.36l-.09-.58c-1.26.25-2.41.35-3.53.36v-2.85h-.68v3.42ZM336.8,349.79h4.95v-2.84h-4.95v2.84ZM337.47,349.24v-1.75h3.62v1.75h-3.62ZM341.75,342.1h-.68v4.41h.68v-2.03h1.19v-.59h-1.19v-1.78ZM349.6,342.61h-5.29v.58h4.61v.11c0,.73,0,1.55-.24,2.66h-5.25v.58h3.19v3.39h.7v-3.39h3.22v-.58h-1.16c.23-1.12.23-1.94.23-2.66v-.68Z"/><path class="cls-1" d="M209.34,67.57l5.62,4.74,5.74,4.85,5.74,5.08,1.01.9,1.35,1.02,1.35,1.02,1.12,1.02.56,1.02.11,1.24-.11,1.13v8.24l.11.9.22,2.03-.34,1.69-.45,1.47-.67,1.35-.79,1.13-.67,1.35-.67,1.35h.22l.11.23v.11l-1.91,3.39-2.02,3.16-2.36,2.82-1.24,1.13-1.12,1.24-.9,1.24-.67,2.82-.34,2.94-.56,3.16-.34.68v9.6l-.11.79v10.61l-1.91-.45-1.57.11-1.46.34-1.24.68-1.35.79-1.69,1.02-1.46,1.02-1.35,1.69-1.01,2.03-.79,2.26-.67,2.14-.67,2.26-5.29,2.03-5.51,1.92-1.01,3.05-1.46,2.82-1.69,2.48-.22.23h-4.5l-1.01.11h-9.33l-1.91.11h-.45l-.45.23-.34.11-.22.34-.34.23-.11.34-1.24.9-.79,1.13-1.12.9-.79.9v.23l-1.12.9-.79,1.02-.67,2.6-.45,2.6-.22,2.71-2.7-1.81-2.47-2.03-2.59-2.14-2.14-1.47-2.02-1.24-2.02-1.47-1.8-1.69-.9-1.47-.9-1.47-1.12-1.35-1.57-.23-1.24-.68-.9-.79-.67-1.13-.79-1.13-.67-1.02,3.15,1.13,3.71.79,4.16.23h4.27l2.25-2.48,2.7-2.82,2.36-2.94,1.12-1.92.9-1.92.79-2.15.22-2.6-.11-2.94v-13.43l.11-2.03-.22-1.92v-11.29l.79-.9,1.12-.9,1.01-.79.56-1.02.34-1.47v-3.5l.67-8.69.79-9.03.67-8.81.79-8.47,4.39.11,4.27.23,4.05.11,1.46.11h1.35l1.46-.11.9-.56.56-.9.56-1.02.67-1.02.67-.9.9-.56,1.12-.34,1.57.34.22.11h6.52l1.12-.34.79-.45.67-.68.79-.9,2.47-3.05,2.36-3.16,1.69-3.27ZM185.99,134.23h-7.11v.56h7.11v-.56ZM179.65,131.92c0,.97,1.08,1.56,2.77,1.57,1.68,0,2.76-.59,2.75-1.57,0-.98-1.07-1.56-2.75-1.55-1.69,0-2.76.57-2.77,1.55ZM179.79,137.74h5.4v-.58h-4.72v-1.69h-.68v2.27ZM180.37,131.92c0-.61.8-.99,2.05-.99s2.06.38,2.05.99c0,.62-.79.99-2.05.99s-2.05-.37-2.05-.99ZM191.02,130.68h-4.14v.58h.79v2.6h-1.01s.07.58.07.58c1.28,0,3.05-.02,4.57-.25l-.02-.52c-.34.05-.7.07-1.06.1v-2.51h.79v-.58ZM187.91,136.5c0,.88.98,1.4,2.61,1.4,1.64,0,2.63-.52,2.63-1.4s-.99-1.41-2.63-1.4c-1.63,0-2.62.5-2.61,1.4ZM188.34,133.85v-2.59h1.22v2.55c-.41.03-.83.04-1.22.04ZM188.59,136.5c0-.55.73-.87,1.93-.86,1.21,0,1.94.31,1.94.86s-.74.85-1.94.85c-1.2,0-1.94-.31-1.93-.85ZM191.11,133.47h1.31v1.46h.68v-4.83h-.68v1.4h-1.31v.56h1.31v.83h-1.31v.58ZM200.6,130.61h-5.29v.58h4.61v.11c0,.73,0,1.55-.24,2.66h-5.25v.58h3.19v3.39h.7v-3.39h3.22v-.58h-1.16c.23-1.12.23-1.94.23-2.66v-.68Z"/><path class="cls-1" d="M215.7,158.85l1.91.11v.57l-.11,1.24v7.01l1.24,1.24,1.69.68,1.69.79,1.8.68,1.46,6.44,1.46,6.33-1.57,5.2-1.69,5.54-1.57,5.65-.56,1.81-.79,1.92-.22,1.58.22,1.81.67,1.58.56,1.58.56,1.7.9,1.02,1.01,1.02,1.01,1.02,1.01,1.02,2.25,2.15,2.13,1.92,2.13,2.03-1.69,2.37-2.02,1.92-2.25,1.7-2.25,1.7-2.36,1.58-2.58,1.47-2.13,1.81-5.28-.57-5.73-.68-5.73-.57-1.91-.11-1.8-.11-1.57-.34-1.12-.57-1.12-1.02-5.62-5.77-.22-.23h-.22l-2.92-3.05-2.7-2.71-3.71-2.71-3.37-3.17-3.37-3.28-3.03-3.39-1.24-1.13-1.24-1.36-1.46-1.36-1.24-1.24-.56-1.24v-.68l.11-1.36.22-1.47.22-1.7.34-1.24.22-.9.34-.57.45-.45.45-.45.45-.45,1.01-.9.9-.9v-.11l1.01-1.02.9-1.02.22-.34.22-.34.22-.11.22-.34.22-.11h9.55l1.12-.11h3.48l3.37-.11,2.02-2.71,1.57-2.94,1.35-3.28,3.82-1.13,3.48-1.47,3.6-1.47,1.01-3.84,1.46-3.39,1.57-3.17,1.35-.68,1.12-.79,1.24-.79,1.35-.68,1.46-.45,1.57-.11ZM183.61,204.19v-1.42h-.68v1.42c-.02,1.44-.92,2.94-2.07,3.51l.45.56c.89-.48,1.62-1.48,1.96-2.65.35,1.12,1.09,2.04,1.98,2.5l.41-.56c-1.14-.52-2.05-1.94-2.05-3.37ZM184.82,205.33h1.84v4.59h.68v-7.81h-.68v2.67h-1.84v.56ZM188.92,207.97h.5c1.21,0,2.01-.04,2.94-.23l-.05-.58c-.86.18-1.6.22-2.68.23v-3.78h2.23v-.56h-2.94v4.92ZM195.31,202.1h-.65v3.13h-1.15v-2.97h-.63v7.24h.63v-3.69h1.15v4.1h.65v-7.81ZM203.56,206.1h-7.15v.56h3.29v1.6h.68v-1.6h3.17v-.56ZM197.33,209.74h5.44v-.58h-4.75v-1.67h-.68v2.25ZM197.34,205.2h5.29v-2.72h-5.29v2.72ZM198.01,204.64v-1.62h3.94v1.62h-3.94ZM210.38,202.61h-5.29v.58h4.61v.11c0,.73,0,1.55-.24,2.66h-5.25v.58h3.19v3.39h.7v-3.39h3.22v-.58h-1.16c.23-1.12.23-1.94.23-2.66v-.68Z"/></svg>